<?xml version="1.0" encoding="iso-8859-1"?>
<!-- Generator: Adobe Illustrator 19.0.0, SVG Export Plug-In . SVG Version: 6.00 Build 0)  -->
<svg version="1.1" id="Layer_1" xmlns="http://www.w3.org/2000/svg" xmlns:xlink="http://www.w3.org/1999/xlink" x="0px" y="0px"
	 viewBox="0 0 512 512" style="enable-background:new 0 0 512 512;" xml:space="preserve">
<g>
	<g>
		<path d="M264.536,85.427V31.958l27.579,33.102c1.69,2.023,4.114,3.073,6.573,3.073c1.929,0,3.858-0.649,5.463-1.98
			c3.619-3.022,4.106-8.399,1.093-12.019l-42.68-51.215c-3.252-3.892-9.867-3.892-13.12,0l-42.679,51.215
			c-3.022,3.619-2.527,9.005,1.093,12.019c3.636,3.022,9.014,2.527,12.027-1.093l27.579-33.102v53.46
			C133.74,89.926,42.603,183.795,42.603,298.603C42.603,416.27,138.333,512,256,512s213.397-95.73,213.397-213.397
			C469.397,183.795,378.26,89.926,264.536,85.427z M111.351,431.182c-30.268-33-49.406-76.337-51.463-124.044h16.858
			c0.154,0,0.282-0.077,0.427-0.085c2.023,43.012,19.189,82.021,46.384,111.923L111.351,431.182z M94.339,308.871l91.923,16.227
			l-31.796,63.584c-1.639,3.286-0.999,7.255,1.605,9.85c1.639,1.639,3.824,2.501,6.035,2.501c1.297,0,2.603-0.299,3.816-0.896
			l63.592-31.796l16.227,91.923C164.512,455.142,99.469,390.099,94.339,308.871z M223.026,265.628l-19.223,3.389l-22.612-45.223
			l45.223,22.612L223.026,265.628z M226.415,350.8l-45.223,22.612l22.612-45.223l19.223,3.389L226.415,350.8z M229.513,228.864
			l-63.592-31.796c-3.295-1.63-7.247-1.007-9.85,1.605c-2.603,2.595-3.244,6.564-1.605,9.85l31.796,63.584l-91.923,16.227
			c5.122-81.228,70.174-146.271,151.401-151.393L229.513,228.864z M135.627,166.168l-12.206-12.206
			c33-30.277,76.337-49.414,124.044-51.463v16.858c0,0.154,0.077,0.282,0.085,0.427
			C204.537,121.807,165.528,138.973,135.627,166.168z M417.661,288.343l-91.923-16.227l31.796-63.584
			c1.639-3.286,0.999-7.256-1.605-9.85c-2.603-2.603-6.564-3.218-9.85-1.605l-63.592,31.796L266.26,136.95
			C347.488,142.071,412.531,207.115,417.661,288.343z M288.974,331.577l19.223-3.389l22.612,45.223L285.585,350.8L288.974,331.577z
			 M285.585,246.406l45.223-22.612l-22.612,45.223l-19.223-3.389L285.585,246.406z M264.536,494.518v-17.072
			c42.961-2.057,81.962-19.231,111.837-46.401l12.206,12.206C355.597,473.512,312.217,492.453,264.536,494.518z M266.26,460.264
			l16.227-91.923l63.592,31.796c1.221,0.606,2.518,0.896,3.816,0.896c2.211,0,4.396-0.862,6.035-2.501
			c2.603-2.595,3.244-6.564,1.605-9.85l-31.796-63.584l91.923-16.227C412.54,390.099,347.488,455.142,266.26,460.264z
			 M434.827,290.152c-2.023-43.012-19.189-82.021-46.384-111.923l12.206-12.206c30.268,33,49.406,76.345,51.463,124.044h-16.858
			C435.1,290.067,434.972,290.144,434.827,290.152z"/>
	</g>
</g>
<g>
</g>
<g>
</g>
<g>
</g>
<g>
</g>
<g>
</g>
<g>
</g>
<g>
</g>
<g>
</g>
<g>
</g>
<g>
</g>
<g>
</g>
<g>
</g>
<g>
</g>
<g>
</g>
<g>
</g>
</svg>
